<?xml version="1.0" encoding="utf-8"?>
<!-- Generator: Adobe Illustrator 23.0.3, SVG Export Plug-In . SVG Version: 6.00 Build 0)  -->
<svg version="1.1" id="Layer_1" xmlns="http://www.w3.org/2000/svg" xmlns:xlink="http://www.w3.org/1999/xlink" x="0px" y="0px"
	 viewBox="0 0 1080 713.62" style="enable-background:new 0 0 1080 713.62;" xml:space="preserve">
<style type="text/css">
	.st0{fill:#FFFFFF;}
</style>
<path class="st0" d="M1046.62,461.54c0,61.74-50.12,111.86-111.86,111.86c-17.04,0-33.24-3.84-47.69-10.67
	c-25,25.06-59.6,40.52-97.75,40.52c-21.22,0-41.26-4.8-59.2-13.26c-9.26,5.61-31.88,17.61-62.98,17.33
	c-28.35-0.26-49.2-10.61-58.59-16.03c-21.22,13.32-46.33,20.99-73.2,20.99c-24.1,0-46.79-6.21-66.54-17.04h-0.06
	c-2.64,1.88-10.7,7.08-22.23,6.96c-11.48-0.11-19.4-5.43-22.02-7.36c-21.56,13.94-47.24,22.01-74.83,22.01
	c-46.16,0-86.97-22.63-112.03-57.4c-20.71,19.41-48.87,31.38-79.91,31.38c-63.89,0-115.64-50.51-115.64-112.76
	c0-62.25,51.75-112.76,115.64-112.76c7.17,0,14.17,0.62,20.94,1.86c10.16-66.31,67.38-117.1,136.52-117.1
	c7.56,0,15.01,0.62,22.29,1.81c4.4-44.58,29.91-84.71,71.34-104.07c57.51-26.86,126.19-4.51,163.1,49.83
	c8.63-2.03,17.72-3.1,27.09-3.1c50.91,0,93.12,31.6,101.47,73.14c6.38-1.24,12.92-1.86,19.64-1.86c43.4,0,80.59,26.36,96.45,63.89
	c24.94,4.97,47.46,16.7,65.58,33.18h0.06c15.63-8.41,33.52-13.15,52.54-13.15C996.51,349.74,1046.62,399.8,1046.62,461.54z"/>
<path class="st0" d="M1021.85,413.06c-2.31,33.86-41.71,58.75-88.04,55.59c-13.21-0.9-25.57-3.95-36.4-8.69
	c-21.39,29.63-68.29,40.52-113.49,23.87c-13.21-4.85-24.94-11.63-34.93-19.64c-24.04,31.83-66.99,52.99-116.03,52.99
	c-53.78,0-100.29-25.51-122.47-62.59c-23.2,39.79-81.15,51.3-131.78,25.51c-11.68-5.98-22.01-13.43-30.7-21.9
	c-55.65,31.38-123.43,19.75-154.92-28.05c-33.13-50.28-13.66-121.56,43.46-159.21c30.98-20.43,66.71-26.75,98.2-20.2
	c-0.23-2.6-0.34-5.19-0.34-7.84c0-60.22,55.48-109.03,123.88-109.03c49.55,0,92.33,25.62,112.14,62.59
	c46.33-10.84,93.91,4.29,118.8,42.1c4.85,7.39,8.58,15.24,11.23,23.31c16.31-1.24,33.86,1.07,51.19,7.45
	c32.79,12.08,56.89,35.72,66.48,61.8c6.66,1.24,13.32,3.1,19.98,5.53c16.03,5.93,29.97,14.56,41.2,24.89
	c16.14-11,38.55-17.04,62.81-15.41C988.44,349.29,1024.16,379.26,1021.85,413.06z"/>
</svg>
